<?xml version="1.0" encoding="UTF-8" standalone="no"?>
<!-- Created with Inkscape (http://www.inkscape.org/) -->
<svg
   xmlns:dc="http://purl.org/dc/elements/1.1/"
   xmlns:cc="http://web.resource.org/cc/"
   xmlns:rdf="http://www.w3.org/1999/02/22-rdf-syntax-ns#"
   xmlns:svg="http://www.w3.org/2000/svg"
   xmlns="http://www.w3.org/2000/svg"
   xmlns:sodipodi="http://sodipodi.sourceforge.net/DTD/sodipodi-0.dtd"
   xmlns:inkscape="http://www.inkscape.org/namespaces/inkscape"
   version="1.0"
   width="357.00146"
   height="190.59485"
   id="svg2"
   sodipodi:version="0.32"
   inkscape:version="0.45.1"
   sodipodi:docname="air-con1.svg"
   sodipodi:docbase="/home/jon/docs/airbus/technical/images"
   inkscape:output_extension="org.inkscape.output.svg.inkscape">
  <metadata
     id="metadata2262">
    <rdf:RDF>
      <cc:Work
         rdf:about="">
        <dc:format>image/svg+xml</dc:format>
        <dc:type
           rdf:resource="http://purl.org/dc/dcmitype/StillImage" />
      </cc:Work>
    </rdf:RDF>
  </metadata>
  <sodipodi:namedview
     inkscape:window-height="590"
     inkscape:window-width="801"
     inkscape:pageshadow="2"
     inkscape:pageopacity="0.0"
     guidetolerance="10.0"
     gridtolerance="10.0"
     objecttolerance="10.0"
     borderopacity="1.0"
     bordercolor="#666666"
     pagecolor="#ffffff"
     id="base"
     inkscape:zoom="1.4874483"
     inkscape:cx="238.00099"
     inkscape:cy="127.06324"
     inkscape:window-x="38"
     inkscape:window-y="76"
     inkscape:current-layer="svg2" />
  <defs
     id="defs4">
    <marker
       refX="0"
       refY="0"
       orient="auto"
       style="overflow:visible"
       id="Arrow2Lend">
      <path
         d="M 8.7185878,4.0337352 L -2.2072895,0.016013256 L 8.7185884,-4.0017078 C 6.97309,-1.6296469 6.9831476,1.6157441 8.7185878,4.0337352 z "
         transform="matrix(-1.1,0,0,-1.1,-1.1,0)"
         style="font-size:12px;fill-rule:evenodd;stroke-width:0.625;stroke-linejoin:round"
         id="path8143" />
    </marker>
  </defs>
  <g
     transform="matrix(0.75,0,0,0.75,-78.902303,-76.875819)"
     id="layer1">
    <rect
       width="47.880001"
       height="23.559999"
       x="177.84396"
       y="256.20068"
       style="fill:none;stroke:#ff0000;stroke-width:0.94999999;stroke-miterlimit:4;stroke-dasharray:none;stroke-opacity:1"
       id="rect4122" />
    <path
       d="M 201.11897,337.1407 L 201.11897,351.3907"
       style="fill:none;fill-rule:evenodd;stroke:#ff0000;stroke-width:0.75999999px;stroke-linecap:butt;stroke-linejoin:miter;stroke-opacity:1"
       id="path3149" />
    <path
       d="M 201.11897,318.1407 L 201.11897,280.1407"
       style="fill:none;fill-rule:evenodd;stroke:#ff0000;stroke-width:0.75999999px;stroke-linecap:butt;stroke-linejoin:miter;stroke-opacity:1"
       id="path4120" />
    <text
       x="188.3244"
       y="271.20477"
       style="font-size:9.11999989px;font-style:normal;font-weight:normal;fill:#000000;fill-opacity:1;stroke:none;stroke-width:1px;stroke-linecap:butt;stroke-linejoin:miter;stroke-opacity:1;font-family:Arial"
       id="text4124"
       xml:space="preserve"><tspan
         x="188.3244"
         y="271.20477"
         id="tspan4126">Pack 1</tspan></text>
    <path
       d="M 201.21397,256.3907 L 201.21397,237.3907"
       style="fill:none;fill-rule:evenodd;stroke:#000080;stroke-width:0.75999993px;stroke-linecap:butt;stroke-linejoin:miter;marker-end:url(#Arrow2Lend);stroke-opacity:1"
       id="path4128" />
    <path
       d="M 486.11897,337.1407 L 486.11897,351.3907"
       style="fill:none;fill-rule:evenodd;stroke:#ff0000;stroke-width:0.75999999px;stroke-linecap:butt;stroke-linejoin:miter;stroke-opacity:1"
       id="path5101" />
    <path
       d="M 486.11897,318.1407 L 486.11898,279.7607"
       style="fill:none;fill-rule:evenodd;stroke:#ff0000;stroke-width:0.75999999px;stroke-linecap:butt;stroke-linejoin:miter;stroke-opacity:1"
       id="path5103" />
    <g
       transform="matrix(0.4903226,0,0,0.4903226,415.6351,170.19214)"
       id="g5105">
      <path
         d="M 162.5,321.11218 C 162.5,331.46752 154.10534,339.86218 143.75,339.86218 C 133.39466,339.86218 125,331.46752 125,321.11218 C 125,310.75684 133.39466,302.36218 143.75,302.36218 C 154.10534,302.36218 162.5,310.75684 162.5,321.11218 L 162.5,321.11218 z "
         style="fill:none;fill-rule:evenodd;stroke:#000000;stroke-width:1.25;stroke-linecap:butt;stroke-linejoin:miter;stroke-miterlimit:4;stroke-dasharray:none;stroke-opacity:1"
         id="path5107" />
      <path
         d="M 131.49038,333.3718 C 156.00962,308.85257 156.00962,308.85257 156.00962,308.85257 L 156.00962,308.85257 L 156.00962,308.85257"
         style="fill:none;fill-rule:evenodd;stroke:#000000;stroke-width:0.98076916px;stroke-linecap:butt;stroke-linejoin:miter;stroke-opacity:1"
         id="path5109" />
    </g>
    <rect
       width="47.880001"
       height="23.559999"
       x="462.36896"
       y="256.20068"
       style="fill:none;stroke:#ff0000;stroke-width:0.94999999;stroke-miterlimit:4;stroke-dasharray:none;stroke-opacity:1"
       id="rect5111" />
    <text
       x="472.8494"
       y="271.20477"
       style="font-size:9.11999989px;font-style:normal;font-weight:normal;fill:#000000;fill-opacity:1;stroke:none;stroke-width:1px;stroke-linecap:butt;stroke-linejoin:miter;stroke-opacity:1;font-family:Arial"
       id="text5113"
       xml:space="preserve"><tspan
         x="472.8494"
         y="271.20477"
         id="tspan5119">Pack 2</tspan></text>
    <path
       d="M 486.11897,256.3907 L 486.11897,237.3907"
       style="fill:none;fill-rule:evenodd;stroke:#000080;stroke-width:0.75999993px;stroke-linecap:butt;stroke-linejoin:miter;marker-end:url(#Arrow2Lend);stroke-opacity:1"
       id="path5117" />
    <text
       x="332.18222"
       y="216.59573"
       style="font-size:9.11999989px;font-style:normal;font-weight:normal;fill:#000000;fill-opacity:1;stroke:none;stroke-width:1px;stroke-linecap:butt;stroke-linejoin:miter;stroke-opacity:1;font-family:Arial"
       id="text7061"
       xml:space="preserve"><tspan
         x="332.18222"
         y="216.59573"
         id="tspan7063">Mixer</tspan></text>
    <path
       d="M 201.49897,303.5107 L 486.49897,303.5107"
       style="fill:none;fill-rule:evenodd;stroke:#ff0000;stroke-width:0.75999999px;stroke-linecap:butt;stroke-linejoin:miter;stroke-opacity:1"
       id="path7123" />
    <path
       d="M 390.73897,304.2707 L 390.73897,271.0207"
       style="fill:none;fill-rule:evenodd;stroke:#ff0000;stroke-width:0.75999999px;stroke-linecap:butt;stroke-linejoin:miter;stroke-opacity:1"
       id="path7148" />
    <path
       d="M 343.61897,275.3907 L 343.61897,284.8907"
       style="fill:none;fill-rule:evenodd;stroke:#000080;stroke-width:0.75999999px;stroke-linecap:butt;stroke-linejoin:miter;stroke-opacity:1"
       id="path8326" />
    <path
       d="M 343.61897,256.3907 L 343.61897,237.3907"
       style="fill:none;fill-rule:evenodd;stroke:#000080;stroke-width:0.75999999px;stroke-linecap:butt;stroke-linejoin:miter;marker-end:url(#Arrow2Lend);stroke-opacity:1"
       id="path9297" />
    <text
       x="276.29068"
       y="248.7803"
       style="font-size:9.11999989px;font-style:normal;font-weight:normal;fill:#000000;fill-opacity:1;stroke:none;stroke-width:1px;stroke-linecap:butt;stroke-linejoin:miter;stroke-opacity:1;font-family:Arial"
       id="text10270"
       xml:space="preserve"><tspan
         x="276.29068"
         y="248.7803"
         id="tspan10272">LP Gnd air</tspan></text>
    <text
       x="309.38037"
       y="291.41898"
       style="font-size:9.11999989px;font-style:normal;font-weight:normal;fill:#000000;fill-opacity:1;stroke:none;stroke-width:1px;stroke-linecap:butt;stroke-linejoin:miter;stroke-opacity:1;font-family:Arial"
       id="text10274"
       xml:space="preserve"><tspan
         x="309.38037"
         y="291.41898"
         id="tspan10276">Emerg ram air</tspan></text>
    <path
       d="M 390.73897,252.0207 L 390.73897,237.7707"
       style="fill:none;fill-rule:evenodd;stroke:#ff0000;stroke-width:0.75999999px;stroke-linecap:butt;stroke-linejoin:miter;stroke-opacity:1"
       id="path10278" />
    <path
       d="M 391.49897,189.5107 L 391.49897,165.7607"
       style="fill:none;fill-rule:evenodd;stroke:#ff0000;stroke-width:0.75999999px;stroke-linecap:butt;stroke-linejoin:miter;stroke-opacity:1"
       id="path10280" />
    <g
       transform="matrix(0.3517524,0,0,0.3517524,438.64999,70.521919)"
       id="g10554">
      <path
         d="M 317,406.86218 C 317,430.88657 297.52439,450.36218 273.5,450.36218 C 249.47561,450.36218 230,430.88657 230,406.86218 C 230,382.83779 249.47561,363.36218 273.5,363.36218 C 297.52439,363.36218 317,382.83779 317,406.86218 z "
         transform="matrix(0.908057,0,0,0.908057,21.64633,37.40783)"
         style="opacity:1;color:#000000;fill:#ffffff;fill-opacity:1;fill-rule:nonzero;stroke:#000000;stroke-width:2.20076919;stroke-linecap:round;stroke-linejoin:round;marker:none;marker-start:none;marker-mid:none;marker-end:none;stroke-miterlimit:4;stroke-dasharray:none;stroke-dashoffset:0;stroke-opacity:1;visibility:visible;display:inline;overflow:visible"
         id="path10556" />
      <path
         d="M 270,407.36218 C 270,407.36218 285.49673,404.99816 290,397.36218 C 295.32704,388.32937 290.23161,373.05701 290.23161,373.05701"
         style="fill:none;fill-opacity:0.75;fill-rule:evenodd;stroke:#000000;stroke-width:2px;stroke-linecap:butt;stroke-linejoin:miter;stroke-opacity:1"
         id="path10558" />
      <path
         d="M 269.97411,407.39352 C 269.97411,407.39352 260.17844,395.15497 251.31385,395.07301 C 240.82769,394.97606 230.4767,406.86125 230.4767,406.86125"
         style="fill:none;fill-opacity:0.75;fill-rule:evenodd;stroke:#000000;stroke-width:2px;stroke-linecap:butt;stroke-linejoin:miter;stroke-opacity:1"
         id="path10560" />
      <path
         d="M 270.01419,407.40027 C 270.01419,407.40027 264.31313,422.00284 268.67445,429.72079 C 273.83357,438.85054 288.46113,441.58263 288.46113,441.58263"
         style="fill:none;fill-opacity:0.75;fill-rule:evenodd;stroke:#000000;stroke-width:2px;stroke-linecap:butt;stroke-linejoin:miter;stroke-opacity:1"
         id="path10562" />
    </g>
    <g
       transform="matrix(0.3517524,0,0,0.3517524,58.649986,70.521919)"
       id="g10564">
      <path
         d="M 317,406.86218 C 317,430.88657 297.52439,450.36218 273.5,450.36218 C 249.47561,450.36218 230,430.88657 230,406.86218 C 230,382.83779 249.47561,363.36218 273.5,363.36218 C 297.52439,363.36218 317,382.83779 317,406.86218 z "
         transform="matrix(0.908057,0,0,0.908057,21.64633,37.40783)"
         style="opacity:1;color:#000000;fill:#ffffff;fill-opacity:1;fill-rule:nonzero;stroke:#000000;stroke-width:2.20076919;stroke-linecap:round;stroke-linejoin:round;marker:none;marker-start:none;marker-mid:none;marker-end:none;stroke-miterlimit:4;stroke-dasharray:none;stroke-dashoffset:0;stroke-opacity:1;visibility:visible;display:inline;overflow:visible"
         id="path10566" />
      <path
         d="M 270,407.36218 C 270,407.36218 285.49673,404.99816 290,397.36218 C 295.32704,388.32937 290.23161,373.05701 290.23161,373.05701"
         style="fill:none;fill-opacity:0.75;fill-rule:evenodd;stroke:#000000;stroke-width:2px;stroke-linecap:butt;stroke-linejoin:miter;stroke-opacity:1"
         id="path10568" />
      <path
         d="M 269.97411,407.39352 C 269.97411,407.39352 260.17844,395.15497 251.31385,395.07301 C 240.82769,394.97606 230.4767,406.86125 230.4767,406.86125"
         style="fill:none;fill-opacity:0.75;fill-rule:evenodd;stroke:#000000;stroke-width:2px;stroke-linecap:butt;stroke-linejoin:miter;stroke-opacity:1"
         id="path10570" />
      <path
         d="M 270.01419,407.40027 C 270.01419,407.40027 264.31313,422.00284 268.67445,429.72079 C 273.83357,438.85054 288.46113,441.58263 288.46113,441.58263"
         style="fill:none;fill-opacity:0.75;fill-rule:evenodd;stroke:#000000;stroke-width:2px;stroke-linecap:butt;stroke-linejoin:miter;stroke-opacity:1"
         id="path10572" />
    </g>
    <g
       transform="matrix(0.4903226,0,0,0.4903226,320.6351,103.69214)"
       id="g10574">
      <path
         d="M 162.5,321.11218 C 162.5,331.46752 154.10534,339.86218 143.75,339.86218 C 133.39466,339.86218 125,331.46752 125,321.11218 C 125,310.75684 133.39466,302.36218 143.75,302.36218 C 154.10534,302.36218 162.5,310.75684 162.5,321.11218 L 162.5,321.11218 z "
         style="fill:none;fill-rule:evenodd;stroke:#000000;stroke-width:1.25;stroke-linecap:butt;stroke-linejoin:miter;stroke-miterlimit:4;stroke-dasharray:none;stroke-opacity:1"
         id="path10576" />
      <path
         d="M 131.49038,333.3718 C 156.00962,308.85257 156.00962,308.85257 156.00962,308.85257 L 156.00962,308.85257 L 156.00962,308.85257"
         style="fill:none;fill-rule:evenodd;stroke:#000000;stroke-width:0.98076916px;stroke-linecap:butt;stroke-linejoin:miter;stroke-opacity:1"
         id="path10578" />
    </g>
    <g
       transform="matrix(0.4903226,0,0,0.4903226,273.1351,108.44214)"
       id="g10580">
      <path
         d="M 162.5,321.11218 C 162.5,331.46752 154.10534,339.86218 143.75,339.86218 C 133.39466,339.86218 125,331.46752 125,321.11218 C 125,310.75684 133.39466,302.36218 143.75,302.36218 C 154.10534,302.36218 162.5,310.75684 162.5,321.11218 L 162.5,321.11218 z "
         style="fill:none;fill-rule:evenodd;stroke:#000000;stroke-width:1.25;stroke-linecap:butt;stroke-linejoin:miter;stroke-miterlimit:4;stroke-dasharray:none;stroke-opacity:1"
         id="path10582" />
      <path
         d="M 131.49038,333.3718 C 156.00962,308.85257 156.00962,308.85257 156.00962,308.85257 L 156.00962,308.85257 L 156.00962,308.85257"
         style="fill:none;fill-rule:evenodd;stroke:#000000;stroke-width:0.98076916px;stroke-linecap:butt;stroke-linejoin:miter;stroke-opacity:1"
         id="path10584" />
    </g>
    <g
       transform="matrix(0.4903226,0,0,0.4903226,130.6351,170.19214)"
       id="g10586">
      <path
         d="M 162.5,321.11218 C 162.5,331.46752 154.10534,339.86218 143.75,339.86218 C 133.39466,339.86218 125,331.46752 125,321.11218 C 125,310.75684 133.39466,302.36218 143.75,302.36218 C 154.10534,302.36218 162.5,310.75684 162.5,321.11218 L 162.5,321.11218 z "
         style="fill:none;fill-rule:evenodd;stroke:#000000;stroke-width:1.25;stroke-linecap:butt;stroke-linejoin:miter;stroke-miterlimit:4;stroke-dasharray:none;stroke-opacity:1"
         id="path10588" />
      <path
         d="M 131.49038,333.3718 C 156.00962,308.85257 156.00962,308.85257 156.00962,308.85257 L 156.00962,308.85257 L 156.00962,308.85257"
         style="fill:none;fill-rule:evenodd;stroke:#000000;stroke-width:0.98076916px;stroke-linecap:butt;stroke-linejoin:miter;stroke-opacity:1"
         id="path10590" />
    </g>
    <rect
       width="332.5"
       height="47.5"
       x="177.36897"
       y="189.8907"
       style="fill:none;stroke:#000000;stroke-width:0.94999999;stroke-miterlimit:4;stroke-dasharray:none;stroke-opacity:1"
       id="rect5099" />
    <path
       d="M 129.86897,213.6407 L 139.36897,213.6407"
       style="fill:none;fill-rule:evenodd;stroke:#000080;stroke-width:0.75999999px;stroke-linecap:butt;stroke-linejoin:miter;stroke-opacity:1"
       id="path10592" />
    <path
       d="M 167.86897,213.6407 L 177.36897,213.6407"
       style="fill:none;fill-rule:evenodd;stroke:#000080;stroke-width:0.75999999px;stroke-linecap:butt;stroke-linejoin:miter;marker-end:url(#Arrow2Lend);stroke-opacity:1"
       id="path10594" />
    <path
       d="M 557.36897,213.6407 L 547.86897,213.6407"
       style="fill:none;fill-rule:evenodd;stroke:#000080;stroke-width:0.75999999px;stroke-linecap:butt;stroke-linejoin:miter;stroke-opacity:1"
       id="path10596" />
    <path
       d="M 519.36897,213.6407 L 509.86897,213.6407"
       style="fill:none;fill-rule:evenodd;stroke:#000080;stroke-width:0.75999999px;stroke-linecap:butt;stroke-linejoin:miter;marker-end:url(#Arrow2Lend);stroke-opacity:1"
       id="path10598" />
    <text
       x="202.67757"
       y="343.7803"
       style="font-size:9.11999989px;font-style:normal;font-weight:normal;fill:#000000;fill-opacity:1;stroke:none;stroke-width:1px;stroke-linecap:butt;stroke-linejoin:miter;stroke-opacity:1;font-family:Arial"
       id="text11569"
       xml:space="preserve"><tspan
         x="202.67757"
         y="343.7803"
         id="tspan11571">Pack flow</tspan><tspan
         x="202.67757"
         y="355.1803"
         id="tspan11573">control valve</tspan></text>
    <text
       x="488.01898"
       y="345.1207"
       style="font-size:9.11999989px;font-style:normal;font-weight:normal;fill:#000000;fill-opacity:1;stroke:none;stroke-width:1px;stroke-linecap:butt;stroke-linejoin:miter;stroke-opacity:1;font-family:Arial"
       id="text11575"
       xml:space="preserve"><tspan
         x="488.01898"
         y="345.1207"
         id="tspan11577">Pack flow</tspan><tspan
         x="488.01898"
         y="356.52069"
         id="tspan11579">control valve</tspan></text>
    <text
       x="392.44897"
       y="277.29071"
       style="font-size:9.11999989px;font-style:normal;font-weight:normal;fill:#000000;fill-opacity:1;stroke:none;stroke-width:1px;stroke-linecap:butt;stroke-linejoin:miter;stroke-opacity:1;font-family:Arial"
       id="text11581"
       xml:space="preserve"><tspan
         x="392.44897"
         y="277.29071"
         id="tspan11583">Hot air press</tspan><tspan
         x="392.44897"
         y="288.6907"
         id="tspan11585">reg valve</tspan></text>
    <text
       x="105.21643"
       y="210.16209"
       style="font-size:9.11999989px;font-style:normal;font-weight:normal;fill:#000000;fill-opacity:1;stroke:none;stroke-width:1px;stroke-linecap:butt;stroke-linejoin:miter;stroke-opacity:1;font-family:Arial"
       id="text11587"
       xml:space="preserve"><tspan
         x="105.21643"
         y="210.16209"
         id="tspan11589">Cabin</tspan><tspan
         x="105.21643"
         y="221.56209"
         id="tspan11593">Air</tspan></text>
    <text
       x="557.98645"
       y="210.16209"
       style="font-size:9.11999989px;font-style:normal;font-weight:normal;fill:#000000;fill-opacity:1;stroke:none;stroke-width:1px;stroke-linecap:butt;stroke-linejoin:miter;stroke-opacity:1;font-family:Arial"
       id="text11597"
       xml:space="preserve"><tspan
         x="557.98645"
         y="210.16209"
         id="tspan11599">Cabin</tspan><tspan
         x="557.98645"
         y="221.56209"
         id="tspan11601">Air</tspan></text>
    <path
       d="M 201.11897,189.8907 L 201.11897,118.6407"
       style="fill:none;fill-rule:evenodd;stroke:#000080;stroke-width:0.75999999px;stroke-linecap:butt;stroke-linejoin:miter;marker-end:url(#Arrow2Lend);stroke-opacity:1"
       id="path11603" />
    <path
       d="M 343.99897,189.5107 L 343.99897,118.2607"
       style="fill:none;fill-rule:evenodd;stroke:#000080;stroke-width:0.75999999px;stroke-linecap:butt;stroke-linejoin:miter;marker-end:url(#Arrow2Lend);stroke-opacity:1"
       id="path11605" />
    <path
       d="M 486.49897,189.5107 L 486.49897,118.2607"
       style="fill:none;fill-rule:evenodd;stroke:#000080;stroke-width:0.75999999px;stroke-linecap:butt;stroke-linejoin:miter;marker-end:url(#Arrow2Lend);stroke-opacity:1"
       id="path11607" />
    <text
       x="185.00757"
       y="111.0303"
       style="font-size:9.11999989px;font-style:normal;font-weight:normal;fill:#000000;fill-opacity:1;stroke:none;stroke-width:1px;stroke-linecap:butt;stroke-linejoin:miter;stroke-opacity:1;font-family:Arial"
       id="text12578"
       xml:space="preserve"><tspan
         x="185.00757"
         y="111.0303"
         id="tspan12580">Cockpit</tspan></text>
    <text
       x="326.39133"
       y="110.91898"
       style="font-size:9.11999989px;font-style:normal;font-weight:normal;fill:#000000;fill-opacity:1;stroke:none;stroke-width:1px;stroke-linecap:butt;stroke-linejoin:miter;stroke-opacity:1;font-family:Arial"
       id="text12582"
       xml:space="preserve"><tspan
         x="326.39133"
         y="110.91898"
         id="tspan12584">Fwd cabin</tspan></text>
    <text
       x="467.11896"
       y="109.1407"
       style="font-size:9.11999989px;font-style:normal;font-weight:normal;fill:#000000;fill-opacity:1;stroke:none;stroke-width:1px;stroke-linecap:butt;stroke-linejoin:miter;stroke-opacity:1;font-family:Arial"
       id="text12586"
       xml:space="preserve"><tspan
         x="467.11896"
         y="109.1407"
         id="tspan12588">Aft cabin</tspan></text>
    <g
       transform="matrix(0.4903226,0,0,0.4903226,153.8151,-15.057858)"
       id="g12590">
      <path
         d="M 162.5,321.11218 C 162.5,331.46752 154.10534,339.86218 143.75,339.86218 C 133.39466,339.86218 125,331.46752 125,321.11218 C 125,310.75684 133.39466,302.36218 143.75,302.36218 C 154.10534,302.36218 162.5,310.75684 162.5,321.11218 L 162.5,321.11218 z "
         style="fill:none;fill-rule:evenodd;stroke:#000000;stroke-width:1.25;stroke-linecap:butt;stroke-linejoin:miter;stroke-miterlimit:4;stroke-dasharray:none;stroke-opacity:1"
         id="path12592" />
      <path
         d="M 131.49038,333.3718 C 156.00962,308.85257 156.00962,308.85257 156.00962,308.85257 L 156.00962,308.85257 L 156.00962,308.85257"
         style="fill:none;fill-rule:evenodd;stroke:#000000;stroke-width:0.98076916px;stroke-linecap:butt;stroke-linejoin:miter;stroke-opacity:1"
         id="path12594" />
    </g>
    <g
       transform="matrix(0.4903226,0,0,0.4903226,296.3151,-15.057858)"
       id="g12596">
      <path
         d="M 162.5,321.11218 C 162.5,331.46752 154.10534,339.86218 143.75,339.86218 C 133.39466,339.86218 125,331.46752 125,321.11218 C 125,310.75684 133.39466,302.36218 143.75,302.36218 C 154.10534,302.36218 162.5,310.75684 162.5,321.11218 L 162.5,321.11218 z "
         style="fill:none;fill-rule:evenodd;stroke:#000000;stroke-width:1.25;stroke-linecap:butt;stroke-linejoin:miter;stroke-miterlimit:4;stroke-dasharray:none;stroke-opacity:1"
         id="path12598" />
      <path
         d="M 131.49038,333.3718 C 156.00962,308.85257 156.00962,308.85257 156.00962,308.85257 L 156.00962,308.85257 L 156.00962,308.85257"
         style="fill:none;fill-rule:evenodd;stroke:#000000;stroke-width:0.98076916px;stroke-linecap:butt;stroke-linejoin:miter;stroke-opacity:1"
         id="path12600" />
    </g>
    <g
       transform="matrix(0.4903226,0,0,0.4903226,438.8151,-15.057858)"
       id="g12602">
      <path
         d="M 162.5,321.11218 C 162.5,331.46752 154.10534,339.86218 143.75,339.86218 C 133.39466,339.86218 125,331.46752 125,321.11218 C 125,310.75684 133.39466,302.36218 143.75,302.36218 C 154.10534,302.36218 162.5,310.75684 162.5,321.11218 L 162.5,321.11218 z "
         style="fill:none;fill-rule:evenodd;stroke:#000000;stroke-width:1.25;stroke-linecap:butt;stroke-linejoin:miter;stroke-miterlimit:4;stroke-dasharray:none;stroke-opacity:1"
         id="path12604" />
      <path
         d="M 131.49038,333.3718 C 156.00962,308.85257 156.00962,308.85257 156.00962,308.85257 L 156.00962,308.85257 L 156.00962,308.85257"
         style="fill:none;fill-rule:evenodd;stroke:#000000;stroke-width:0.98076916px;stroke-linecap:butt;stroke-linejoin:miter;stroke-opacity:1"
         id="path12606" />
    </g>
    <path
       d="M 224.86897,151.8907 L 224.86897,166.1407"
       style="fill:none;fill-rule:evenodd;stroke:#ff0000;stroke-width:0.75999999px;stroke-linecap:butt;stroke-linejoin:miter;stroke-opacity:1"
       id="path12610" />
    <path
       d="M 367.36897,151.8907 L 367.36897,166.1407"
       style="fill:none;fill-rule:evenodd;stroke:#ff0000;stroke-width:0.75999999px;stroke-linecap:butt;stroke-linejoin:miter;stroke-opacity:1"
       id="path12612" />
    <path
       d="M 509.86897,151.8907 L 509.86897,166.1407"
       style="fill:none;fill-rule:evenodd;stroke:#ff0000;stroke-width:0.75999999px;stroke-linecap:butt;stroke-linejoin:miter;stroke-opacity:1"
       id="path12614" />
    <path
       d="M 224.86897,166.1407 L 509.86897,166.1407"
       style="fill:none;fill-rule:evenodd;stroke:#ff0000;stroke-width:0.75999999px;stroke-linecap:butt;stroke-linejoin:miter;stroke-opacity:1"
       id="path12616" />
    <path
       d="M 215.36897,142.3907 L 215.36897,142.3907 z "
       style="fill:none;fill-rule:evenodd;stroke:#000000;stroke-width:0.75999999px;stroke-linecap:butt;stroke-linejoin:miter;stroke-opacity:1"
       id="path12618" />
    <path
       d="M 215.36897,142.3907 L 201.11897,142.3907"
       style="fill:none;fill-rule:evenodd;stroke:#ff0000;stroke-width:0.75999999px;stroke-linecap:butt;stroke-linejoin:miter;marker-end:url(#Arrow2Lend);stroke-opacity:1"
       id="path12620" />
    <path
       d="M 357.86897,142.3907 L 343.61897,142.3907"
       style="fill:none;fill-rule:evenodd;stroke:#ff0000;stroke-width:0.75999999px;stroke-linecap:butt;stroke-linejoin:miter;marker-end:url(#Arrow2Lend);stroke-opacity:1"
       id="path12622" />
    <path
       d="M 500.36897,142.3907 L 486.11897,142.3907"
       style="fill:none;fill-rule:evenodd;stroke:#ff0000;stroke-width:0.75999999px;stroke-linecap:butt;stroke-linejoin:miter;marker-end:url(#Arrow2Lend);stroke-opacity:1"
       id="path12624" />
    <text
       x="128.1367"
       y="144.16898"
       style="font-size:9.11999989px;font-style:normal;font-weight:normal;fill:#000000;fill-opacity:1;stroke:none;stroke-width:1px;stroke-linecap:butt;stroke-linejoin:miter;stroke-opacity:1;font-family:Arial"
       id="text13595"
       xml:space="preserve"><tspan
         x="128.1367"
         y="144.16898"
         id="tspan13597">Trim air valves</tspan></text>
    <path
       d="M 391.11897,237.3907 L 391.11897,189.8907"
       style="fill:none;fill-rule:evenodd;stroke:#ff0000;stroke-width:0.75999999;stroke-linecap:butt;stroke-linejoin:miter;stroke-miterlimit:4;stroke-dasharray:0.76, 1.52;stroke-dashoffset:0;stroke-opacity:1"
       id="path13599" />
    <path
       d="M 319.86897,251.6407 L 343.08157,251.6407"
       style="fill:none;fill-rule:evenodd;stroke:#0000ff;stroke-width:0.75999999px;stroke-linecap:butt;stroke-linejoin:miter;marker-end:url(#Arrow2Lend);stroke-opacity:1"
       id="path15539" />
  </g>
</svg>
