<?xml version="1.0" encoding="UTF-8" standalone="no"?>
<svg xmlns:rdf="http://www.w3.org/1999/02/22-rdf-syntax-ns#" xmlns="http://www.w3.org/2000/svg" height="244.84" width="595.91" version="1.0" xmlns:cc="http://creativecommons.org/ns#" xmlns:dc="http://purl.org/dc/elements/1.1/">
 <defs>
  <marker id="a" refY="0" refX="0" orient="auto" overflow="visible">
   <path d="m0 0 5-5-17.5 5 17.5 5-5-5z" fill-rule="evenodd" transform="matrix(-.2 0 0 -.2 -1.2 0)" stroke="#000" stroke-width="1pt"/>
  </marker>
 </defs>
 <g transform="translate(-142.37 31.629)">
  <g stroke="#000" style="" transform="matrix(0 .25262 -.25262 0 301.37 -77.528)">
   <path stroke-linejoin="round" stroke-linecap="round" stroke-width="3.5652" fill="#fff" style="color:#000000" transform="matrix(.90806 0 0 .90806 186.65 37.908)" d="m317 406.86c0 24.024-19.476 43.5-43.5 43.5s-43.5-19.476-43.5-43.5 19.476-43.5 43.5-43.5 43.5 19.476 43.5 43.5z"/>
   <path d="m425 369.11v76.375" stroke-width="3.24px" fill="none"/>
   <path d="m445 368.99v76.375" stroke-width="3.24px" fill="none"/>
  </g>
  <g stroke="#000" style="" transform="matrix(0 .25262 -.25262 0 687.61 -77.528)">
   <path stroke-linejoin="round" stroke-linecap="round" stroke-width="3.5652" fill="#fff" style="color:#000000" transform="matrix(.90806 0 0 .90806 186.65 37.908)" d="m317 406.86c0 24.024-19.476 43.5-43.5 43.5s-43.5-19.476-43.5-43.5 19.476-43.5 43.5-43.5 43.5 19.476 43.5 43.5z"/>
   <path d="m425 369.11v76.375" stroke-width="3.24px" fill="none"/>
   <path d="m445 368.99v76.375" stroke-width="3.24px" fill="none"/>
  </g>
  <g fill="none">
   <path marker-end="url(#a)" d="m178.07 32.362h495" stroke="#00f" stroke-width="3.75"/>
   <g stroke="#000" transform="translate(231.58 -60)">
    <rect height="20" width="20" y="82.362" x="150" stroke-width="1.875"/>
    <g stroke-width="1px">
     <path d="m155.12 82.362v20"/>
     <path d="m160.12 82.362v20"/>
     <path d="m165.12 82.362v20"/>
     <path d="m150 87.237h20"/>
     <path d="m150 92.362h20"/>
     <path d="m150 97.362h20"/>
    </g>
   </g>
   <rect height="25.229" stroke="#000" stroke-width="1.25" style="color:#000000" width="50.459" y="132.05" x="248.6"/>
  </g>
  <g stroke="#000" style="" transform="matrix(-.25262 0 0 -.25262 373 247.27)">
   <path stroke-linejoin="round" stroke-linecap="round" stroke-width="3.5652" fill="#fff" style="color:#000000" transform="matrix(.90806 0 0 .90806 186.65 37.908)" d="m317 406.86c0 24.024-19.476 43.5-43.5 43.5s-43.5-19.476-43.5-43.5 19.476-43.5 43.5-43.5 43.5 19.476 43.5 43.5z"/>
   <path d="m425 369.11v76.375" stroke-width="3.24px" fill="none"/>
   <path d="m445 368.99v76.375" stroke-width="3.24px" fill="none"/>
  </g>
  <path style="color:#000000" d="m263.27 32.481-0.19108 136.09" stroke="#00f" stroke-width="3.75" fill="none"/>
  <g stroke="#000" style="" transform="matrix(.25350 0 0 .25357 194.39 -70.821)">
   <path stroke-linejoin="round" stroke-linecap="round" stroke-width="2.3775" fill="#fff" style="color:#000000" transform="matrix(.90806 0 0 .90806 21.646 37.408)" d="m317 406.86c0 24.024-19.476 43.5-43.5 43.5s-43.5-19.476-43.5-43.5 19.476-43.5 43.5-43.5 43.5 19.476 43.5 43.5z"/>
   <g stroke-width="2.1606px" fill="none">
    <path d="m270 407.36s15.497-2.364 20-10c5.327-9.0328 0.23161-24.305 0.23161-24.305"/>
    <path d="m269.97 407.39s-9.7957-12.239-18.66-12.321c-10.486-0.0969-20.837 11.788-20.837 11.788"/>
    <path d="m270.01 407.4s-5.7011 14.603-1.3397 22.321c5.1591 9.1298 19.787 11.862 19.787 11.862"/>
   </g>
  </g>
  <rect height="20" width="40" stroke="#000" y="22.362" x="307.21" stroke-width="1.25" fill="#fff"/>
  <g stroke="#000" style="" transform="matrix(.25350 0 0 .25357 387.51 -70.821)">
   <path stroke-linejoin="round" stroke-linecap="round" stroke-width="2.3775" fill="#fff" style="color:#000000" transform="matrix(.90806 0 0 .90806 21.646 37.408)" d="m317 406.86c0 24.024-19.476 43.5-43.5 43.5s-43.5-19.476-43.5-43.5 19.476-43.5 43.5-43.5 43.5 19.476 43.5 43.5z"/>
   <g stroke-width="2.1606px" fill="none">
    <path d="m270 407.36s15.497-2.364 20-10c5.327-9.0328 0.23161-24.305 0.23161-24.305"/>
    <path d="m269.97 407.39s-9.7957-12.239-18.66-12.321c-10.486-0.0969-20.837 11.788-20.837 11.788"/>
    <path d="m270.01 407.4s-5.7011 14.603-1.3397 22.321c5.1591 9.1298 19.787 11.862 19.787 11.862"/>
   </g>
  </g>
  <rect height="20" width="20" stroke="#000" y="22.362" x="510.33" stroke-width="1.25" fill="#fff"/>
  <rect height="20" width="10" stroke="#000" y="22.362" x="644.07" stroke-width="1.25" fill="#fff"/>
  <g font-size="15px" font-family="Arial" fill="#000000">
   <text style="writing-mode:lr;text-anchor:middle;text-align:center" xml:space="preserve" line-height="100%" y="-17.533524" x="198.3934"><tspan x="198.3934" y="-17.533524">LP fuel</tspan><tspan x="198.3934" y="-2.5335236">shutoff</tspan><tspan x="198.3934" y="12.466476">valve</tspan></text>
   <text style="writing-mode:lr;text-anchor:middle;text-align:center" xml:space="preserve" line-height="100%" y="22.642944" x="160.07446"><tspan x="160.07446" y="22.642944">From</tspan><tspan x="160.07446" y="37.642944">fuel</tspan><tspan x="160.07446" y="52.642944">tank</tspan></text>
   <text style="writing-mode:lr;text-anchor:middle;text-align:center" xml:space="preserve" line-height="100%" y="30.142944" x="709.53442"><tspan x="709.53442" y="30.142944">To Fuel</tspan><tspan x="709.53442" y="45.142944">nozzles</tspan></text>
   <text style="writing-mode:lr;text-anchor:middle;text-align:center" xml:space="preserve" line-height="100%" y="-5.3386993" x="262.46021"><tspan x="262.46021" y="-5.3386993">LP</tspan><tspan x="262.46021" y="9.6613007">Pump</tspan></text>
   <text style="writing-mode:lr;text-anchor:middle;text-align:center" xml:space="preserve" line-height="100%" y="-20.514481" x="327.1337"><tspan x="327.1337" y="-20.514481">Fuel/ Oil</tspan><tspan x="327.1337" y="-5.5144806">heat</tspan><tspan x="327.1337" y="9.4855194">exchanger</tspan></text>
   <text style="writing-mode:lr;text-anchor:middle;text-align:center" xml:space="preserve" line-height="100%" y="12.466476" x="391.1319"><tspan x="391.1319" y="12.466476">Filter</tspan></text>
   <text style="writing-mode:lr;text-anchor:middle;text-align:center" xml:space="preserve" line-height="100%" y="-5.3386993" x="455.72983"><tspan x="455.72983" y="-5.3386993">HP</tspan><tspan x="455.72983" y="9.6613007">pump</tspan></text>
   <text style="writing-mode:lr;text-anchor:middle;text-align:center" xml:space="preserve" line-height="100%" y="-17.533524" x="520.1839"><tspan x="520.1839" y="-17.533524">Fuel</tspan><tspan x="520.1839" y="-2.5335236">Metering</tspan><tspan x="520.1839" y="12.466476">valve</tspan></text>
   <text style="writing-mode:lr;text-anchor:middle;text-align:center" xml:space="preserve" line-height="100%" y="-17.533524" x="584.63263"><tspan x="584.63263" y="-17.533524">HP fuel</tspan><tspan x="584.63263" y="-2.5335236">shutoff</tspan><tspan x="584.63263" y="12.466476">valve</tspan></text>
   <text style="writing-mode:lr;text-anchor:middle;text-align:center" xml:space="preserve" line-height="100%" y="-17.533524" x="648.96973"><tspan x="648.96973" y="-17.533524">Fuel</tspan><tspan x="648.96973" y="-2.5335236">flow</tspan><tspan x="648.96973" y="12.466476">sensor</tspan></text>
  </g>
  <g stroke="#000" style="" transform="matrix(.25262 0 0 .25262 371.93 -33.046)">
   <path stroke-linejoin="round" stroke-linecap="round" stroke-width="3.5652" fill="#fff" style="color:#000000" transform="matrix(.90806 0 0 .90806 186.65 37.908)" d="m317 406.86c0 24.024-19.476 43.5-43.5 43.5s-43.5-19.476-43.5-43.5 19.476-43.5 43.5-43.5 43.5 19.476 43.5 43.5z"/>
   <path d="m425 369.11v76.375" stroke-width="3.24px" fill="none"/>
   <path d="m445 368.99v76.375" stroke-width="3.24px" fill="none"/>
  </g>
  <path style="color:#000000" d="m482.07 107.36-196.28 0.00011" marker-mid="url(#a)" stroke="#00f" marker="none" stroke-width="3.75" fill="none"/>
  <rect height="20" stroke="#000" stroke-width="1.25" fill="#fff" style="color:#000000" width="50" y="97.362" x="344.42"/>
  <g fill="none">
   <path style="color:#000000" d="m285.79 107.36-0.43-40.982-0.29-34.016" marker-mid="url(#a)" stroke="#00f" marker="none" stroke-width="3.75"/>
   <path style="color:#000000" marker-end="url(#a)" d="m498.75 32.362-0.67828 75h125" stroke="#00f" marker="none" stroke-width="3.75"/>
   <g stroke="#000" transform="translate(374.58 15)">
    <rect height="20" width="20" y="82.362" x="150" stroke-width="1.875"/>
    <g stroke-width="1px">
     <path d="m155.12 82.362v20"/>
     <path d="m160.12 82.362v20"/>
     <path d="m165.12 82.362v20"/>
     <path d="m150 87.237h20"/>
     <path d="m150 92.362h20"/>
     <path d="m150 97.362h20"/>
    </g>
   </g>
  </g>
  <rect height="20" width="40" stroke="#000" y="97.362" x="566.21" stroke-width="1.25" fill="#fff"/>
  <g font-size="15px" font-family="Arial" fill="#000000">
   <text style="writing-mode:lr;text-anchor:middle;text-align:center" xml:space="preserve" line-height="100%" y="208.86218" x="274.1622"><tspan x="274.1622" y="208.86218">To fuel tank</tspan></text>
   <text style="writing-mode:lr;text-anchor:middle;text-align:center" xml:space="preserve" line-height="100%" y="111.86218" x="663.57446"><tspan x="663.57446" y="111.86218">To servos</tspan></text>
   <text style="writing-mode:lr;text-anchor:middle;text-align:center" xml:space="preserve" line-height="100%" y="137.10361" x="585.75867"><tspan x="585.75867" y="137.10361">Servo/</tspan><tspan x="585.75867" y="152.10361">Fuel</tspan><tspan x="585.75867" y="167.10361">Heater</tspan></text>
   <text style="writing-mode:lr;text-anchor:middle;text-align:center" xml:space="preserve" line-height="100%" y="136.9205" x="534.91284"><tspan x="534.91284" y="136.9205">Wash</tspan><tspan x="534.91284" y="151.9205">filter</tspan></text>
   <text style="writing-mode:lr;text-anchor:middle;text-align:center" xml:space="preserve" line-height="100%" y="137.10361" x="369.2023"><tspan x="369.2023" y="137.10361">IDG oil</tspan><tspan x="369.2023" y="152.10361">cooler</tspan></text>
   <text style="text-anchor:middle;text-align:center" xml:space="preserve" line-height="100%" y="67.642937" x="441.5629"><tspan x="441.5629" y="67.642937">By-pass</tspan><tspan x="441.5629" y="82.642937">valve</tspan></text>
  </g>
  <path style="color:#000000" d="m481.78 32.362v76.823" marker-mid="url(#a)" stroke="#00f" marker="none" stroke-width="3.75" fill="none"/>
  <text style="text-anchor:middle;text-align:center" xml:space="preserve" font-size="15px" line-height="100%" y="134.78888" x="223.79227" font-family="Arial" fill="#000000"><tspan x="223.79227" y="134.78888">Fuel</tspan><tspan x="223.79227" y="149.78888">return</tspan><tspan x="223.79227" y="164.78888">valve</tspan></text>
  <g stroke="#000" style="" transform="matrix(-.25262 0 0 -.25262 395.55 247.42)">
   <path stroke-linejoin="round" stroke-linecap="round" stroke-width="3.5652" fill="#fff" style="color:#000000" transform="matrix(.90806 0 0 .90806 186.65 37.908)" d="m317 406.86c0 24.024-19.476 43.5-43.5 43.5s-43.5-19.476-43.5-43.5 19.476-43.5 43.5-43.5 43.5 19.476 43.5 43.5z"/>
   <path d="m425 369.11v76.375" stroke-width="3.24px" fill="none"/>
   <path d="m445 368.99v76.375" stroke-width="3.24px" fill="none"/>
  </g>
  <g stroke="#00f" stroke-width="3.75" fill="none">
   <path style="color:#000000" d="m285.79 107.36v61.206" marker-mid="url(#a)" marker="none"/>
   <path style="color:#000000" d="m261.22 168.57h26.431"/>
   <path style="color:#000000" marker-end="url(#a)" d="m274.31 168.57v17.3" marker="none"/>
  </g>
 </g>
</svg>
